<svg xmlns="http://www.w3.org/2000/svg" width="205" height="65"><path d="M0 4.13a4 4 0 0 1 4-4h197a4 4 0 0 1 4 4v56a4 4 0 0 1-4 4H4a4 4 0 0 1-4-4z"/><path fill="#fff" d="M43.241 31.728a8.958 8.958 0 0 1 4.26-7.6 9.291 9.291 0 0 0-7.27-3.936c-3.044-.32-6.006 1.84-7.576 1.84-1.57 0-3.972-1.808-6.55-1.744a9.61 9.61 0 0 0-8.152 4.96c-3.508 6.08-.881 15.024 2.482 19.952 1.682 2.4 3.652 5.088 6.23 4.992 2.579-.096 3.476-1.6 6.519-1.6s3.907 1.6 6.534 1.6 4.42-2.432 6.038-4.8a19.736 19.736 0 0 0 2.77-5.616 8.672 8.672 0 0 1-5.285-8.048zM38.241 17.03a8.89 8.89 0 0 0 2.018-6.4 8.955 8.955 0 0 0-5.83 3.072 8.443 8.443 0 0 0-2.082 6.112 7.466 7.466 0 0 0 5.894-2.784zM68.19 41.322l1.713-5.395c.449-1.713.785-3.01.977-3.89.513 2.033.865 3.33 1.041 3.89l1.746 5.395zm4.853-12.052h-4.1L62.28 49.926h3.38l1.89-6.064h6.726l1.922 6.064h3.539zM93.47 42.415a6.395 6.395 0 0 1-1.04 3.792 3.38 3.38 0 0 1-2.915 1.44 3.317 3.317 0 0 1-2.595-1.12 3.998 3.998 0 0 1-.993-2.736v-2.48c.008-.342.062-.681.16-1.008a3.855 3.855 0 0 1 1.298-2.144 3.526 3.526 0 0 1 2.226-.8 3.38 3.38 0 0 1 2.883 1.472 6.076 6.076 0 0 1 .977 3.584zm3.38-.128a8.235 8.235 0 0 0-1.826-5.456 5.896 5.896 0 0 0-9.433.592l-.176-2.368H82.5c.112 1.712.112 3.312.112 4.912v16h3.38v-7.84a4.582 4.582 0 0 0 4.228 2.128 6.025 6.025 0 0 0 4.58-1.968 8.49 8.49 0 0 0 2.05-6zM109.59 46.207a3.378 3.378 0 0 1-2.897 1.44 3.202 3.202 0 0 1-2.593-1.12 3.92 3.92 0 0 1-1.024-2.736v-2.48c.01-.34.057-.679.144-1.008a3.856 3.856 0 0 1 1.296-2.144 3.522 3.522 0 0 1 2.225-.8 3.362 3.362 0 0 1 2.881 1.472 6.078 6.078 0 0 1 .976 3.584 6.254 6.254 0 0 1-1.008 3.792zm2.516-9.376a5.896 5.896 0 0 0-9.433.592l-.176-2.368H99.63c.128 1.712.128 3.312.128 4.912v16h3.363v-7.84a4.582 4.582 0 0 0 4.18 2.128 6.025 6.025 0 0 0 4.629-1.968 8.49 8.49 0 0 0 2.05-6 8.235 8.235 0 0 0-1.874-5.456zM133.153 44.132a5.47 5.47 0 0 1-1.826 4.288 8.157 8.157 0 0 1-5.622 1.808 9.825 9.825 0 0 1-5.365-1.296l.769-2.752a9.072 9.072 0 0 0 4.804 1.328c1.04.059 2.07-.24 2.915-.848a2.767 2.767 0 0 0 1.041-2.256 2.879 2.879 0 0 0-.865-2.128 7.914 7.914 0 0 0-2.85-1.6c-3.62-1.365-5.43-3.339-5.43-5.92a5.262 5.262 0 0 1 1.874-4.224 7.484 7.484 0 0 1 5.061-1.6c1.62-.05 3.228.284 4.693.976l-.833 2.704a8.014 8.014 0 0 0-3.956-.944 3.959 3.959 0 0 0-2.723.848 2.43 2.43 0 0 0-.832 1.872c-.016.785.34 1.532.96 2.016a10.381 10.381 0 0 0 2.995 1.6 10.187 10.187 0 0 1 3.924 2.512 5.213 5.213 0 0 1 1.266 3.616zM144.143 37.506h-3.7v7.232c0 1.84.657 2.768 1.938 2.768a6.2 6.2 0 0 0 1.474-.16l.096 2.512a7.663 7.663 0 0 1-2.579.368 3.974 3.974 0 0 1-3.075-1.2 5.852 5.852 0 0 1-1.105-4.016v-7.504h-2.162v-2.48h2.162v-2.72l3.203-.976v3.696h3.748zM156.202 46.023a3.203 3.203 0 0 1-2.963 1.824 3.364 3.364 0 0 1-3.011-1.792 6.699 6.699 0 0 1-.88-3.536 6.795 6.795 0 0 1 .88-3.584 3.332 3.332 0 0 1 3.043-1.792 3.204 3.204 0 0 1 2.963 1.792 6.71 6.71 0 0 1 .897 3.536 6.571 6.571 0 0 1-.93 3.552zm4.356-3.664a7.851 7.851 0 0 0-1.89-5.424 6.81 6.81 0 0 0-5.285-2.208 6.986 6.986 0 0 0-5.413 2.208 8.14 8.14 0 0 0-2.002 5.712 7.995 7.995 0 0 0 1.954 5.488 6.618 6.618 0 0 0 5.173 2.128 7.002 7.002 0 0 0 5.461-2.272 8.123 8.123 0 0 0 2.002-5.632zM171.368 37.936a5.355 5.355 0 0 0-1.041-.096 3.204 3.204 0 0 0-2.69 1.328 4.797 4.797 0 0 0-.834 2.928v7.824h-3.315V39.712c0-1.712 0-3.2-.128-4.688h2.899l.112 2.848h.096a5.12 5.12 0 0 1 1.602-2.352 4.055 4.055 0 0 1 2.402-.8 4.13 4.13 0 0 1 .817 0zM176.072 40.848a4.941 4.941 0 0 1 .977-2.576 3.204 3.204 0 0 1 2.643-1.344 2.883 2.883 0 0 1 2.595 1.408c.458.767.68 1.652.64 2.544zm8.825-3.776a5.591 5.591 0 0 0-4.885-2.384 6.409 6.409 0 0 0-5.205 2.384 8.554 8.554 0 0 0-1.842 5.616 7.547 7.547 0 0 0 1.842 5.44 7.26 7.26 0 0 0 5.446 2.032c1.71.04 3.41-.27 4.996-.912l-.512-2.304c-1.285.481-2.648.72-4.02.704a4.952 4.952 0 0 1-3.203-1.04 4.398 4.398 0 0 1-1.442-3.376h9.93c.099-.495.142-1 .128-1.504a7.994 7.994 0 0 0-1.233-4.656zM70.88 16.61a4.096 4.096 0 0 1-.944 2.96 3.793 3.793 0 0 1-2.88 1.04 8.469 8.469 0 0 1-1.104 0v-7.584a7.73 7.73 0 0 1 1.312-.096 3.665 3.665 0 0 1 2.672.912c.67.742 1.01 1.723.944 2.72zm.243-3.792a6.058 6.058 0 0 0-4.02-1.152 17.073 17.073 0 0 0-2.803.208v9.984c.793.084 1.59.122 2.386.112a6.523 6.523 0 0 0 4.309-1.28 5.053 5.053 0 0 0 1.601-4.128 4.702 4.702 0 0 0-1.473-3.744zM80.076 18.214a3.198 3.198 0 0 1-.464 1.712c-.277.548-.843.89-1.458.88a1.602 1.602 0 0 1-1.473-.864 3.357 3.357 0 0 1-.432-1.744c-.02-.615.13-1.224.432-1.76a1.6 1.6 0 0 1 1.49-.88c.614-.01 1.18.331 1.457.88.31.522.466 1.121.448 1.728zm.673-2.704a3.734 3.734 0 0 0-5.253 0 3.982 3.982 0 0 0-.993 2.784c-.03.985.312 1.945.96 2.688a3.205 3.205 0 0 0 2.563 1.072 3.429 3.429 0 0 0 2.69-1.12 4.014 4.014 0 0 0 .962-2.768 3.822 3.822 0 0 0-.93-2.656zM93.898 14.53l-2.29 7.344h-1.49l-.944-3.2a18.962 18.962 0 0 1-.593-2.368 17.08 17.08 0 0 1-.592 2.368l-1.01 3.2h-1.505L83.28 14.53h1.602l.832 3.488c.193.816.369 1.6.497 2.336.112-.608.32-1.392.592-2.336l1.154-3.488h1.329l.993 3.424c.24.832.432 1.6.592 2.4.121-.809.287-1.61.497-2.4l.929-3.424zM102.34 21.877h-1.601v-4.144c0-1.296-.497-1.936-1.474-1.936a1.442 1.442 0 0 0-1.169.528 1.85 1.85 0 0 0-.464 1.248v4.336H96.03v-7.345h1.425v1.152c.196-.367.49-.671.85-.88a2.596 2.596 0 0 1 1.473-.416c.63-.016 1.241.22 1.697.656.612.656.92 1.538.85 2.432zM106.822 21.876h-1.602V11.22h1.602zM114.721 18.212a3.425 3.425 0 0 1-.448 1.729 1.602 1.602 0 0 1-2.947 0 3.36 3.36 0 0 1-.433-1.745 3.366 3.366 0 0 1 .433-1.761c.281-.56.863-.904 1.49-.88a1.6 1.6 0 0 1 1.457.88 3.2 3.2 0 0 1 .448 1.729zm1.682-.048a3.822 3.822 0 0 0-.93-2.704 3.734 3.734 0 0 0-5.252 0 3.966 3.966 0 0 0-.977 2.784 3.88 3.88 0 0 0 .945 2.688 3.205 3.205 0 0 0 2.578 1.12 3.413 3.413 0 0 0 2.675-1.12 4.014 4.014 0 0 0 .96-2.768zM122.606 19.328c.028.104.045.211.049.32a1.362 1.362 0 0 1-.562.862 1.61 1.61 0 0 1-.995.336 1.223 1.223 0 0 1-.802-.272 1.116 1.116 0 0 1-.321-.863c0-1.007.898-1.47 2.712-1.47v1.119zm1.68 2.55a12.02 12.02 0 0 1-.033-1.744v-2.688c0-2.016-.944-3.024-2.866-3.024a4.81 4.81 0 0 0-2.515.624l.337 1.072a3.462 3.462 0 0 1 1.905-.544c1.09 0 1.602.48 1.602 1.456v.128a5.85 5.85 0 0 0-3.203.688 2.271 2.271 0 0 0-1.121 2.048c-.016.553.192 1.09.576 1.488.418.436.998.68 1.602.672a2.483 2.483 0 0 0 2.13-1.008l.128.832zM131.852 18.804a1.95 1.95 0 0 1-.514 1.328 1.61 1.61 0 0 1-1.285.608 1.688 1.688 0 0 1-1.43-.72 2.856 2.856 0 0 1-.497-1.76 3.192 3.192 0 0 1 .61-1.856c.33-.467.873-.738 1.446-.72a1.61 1.61 0 0 1 1.092.4c.293.254.496.597.578.976.019.17.019.342 0 .512zm1.527 1.104V11.22h-1.601v4.192a2.179 2.179 0 0 0-2.05-.992 2.948 2.948 0 0 0-2.259 1.024 4.27 4.27 0 0 0-.945 2.88 3.998 3.998 0 0 0 1.01 2.688 2.756 2.756 0 0 0 2.194 1.04c.985.07 1.915-.46 2.354-1.344v1.168h1.457c-.048-.592-.064-1.248-.16-1.968zM145.297 19.966c-.277.548-.843.89-1.457.88a1.602 1.602 0 0 1-1.474-.864 3.194 3.194 0 0 1-.448-1.743 3.194 3.194 0 0 1 .448-1.759 1.602 1.602 0 0 1 2.947 0c.3.525.45 1.123.432 1.727a3.194 3.194 0 0 1-.448 1.76zm2.162-1.807a3.838 3.838 0 0 0-.945-2.672 3.205 3.205 0 0 0-2.578-1.072 3.365 3.365 0 0 0-2.659 1.088 3.902 3.902 0 0 0-.993 2.784c-.03.985.313 1.945.961 2.688a3.205 3.205 0 0 0 2.563 1.072 3.397 3.397 0 0 0 2.674-1.12 3.95 3.95 0 0 0 .977-2.768zM156.2 21.878h-1.6v-4.144c0-1.296-.497-1.936-1.49-1.936-.45-.011-.88.183-1.169.528-.3.346-.46.791-.448 1.248v4.336h-1.602v-7.344h1.425v1.152a2.36 2.36 0 0 1 .833-.88 2.628 2.628 0 0 1 1.474-.416 2.34 2.34 0 0 1 1.73.656c.61.656.919 1.539.848 2.432zM167.154 15.78h-1.793v3.552c0 .912.32 1.36.945 1.36.244.038.492.038.736 0v1.248a3.88 3.88 0 0 1-1.265.176 1.939 1.939 0 0 1-1.505-.592 2.894 2.894 0 0 1-.545-1.968V15.78h-1.057v-1.248h1.057v-1.296l1.602-.496v1.792h1.793zM175.768 21.876h-1.601v-4.144c0-1.312-.48-1.968-1.474-1.968a1.601 1.601 0 0 0-1.601 1.136 2.094 2.094 0 0 0 0 .592v4.384h-1.602V11.22h1.602v4.4a2.467 2.467 0 0 1 2.21-1.2c.6 0 1.175.235 1.601.656.6.674.902 1.564.833 2.464zM179.661 17.445c.048-.456.22-.89.496-1.257a1.508 1.508 0 0 1 1.282-.669 1.412 1.412 0 0 1 1.297.684c.232.372.344.805.32 1.242zm4.997.426a3.837 3.837 0 0 0-.577-2.368 2.692 2.692 0 0 0-2.386-1.168 3.204 3.204 0 0 0-2.562 1.168 4.157 4.157 0 0 0-.897 2.752 3.678 3.678 0 0 0 .96 2.688 3.557 3.557 0 0 0 2.675 1.008 6.412 6.412 0 0 0 2.467-.448l-.257-1.136a5.29 5.29 0 0 1-1.986.352 2.42 2.42 0 0 1-1.601-.512 2.16 2.16 0 0 1-.72-1.6h4.884a3.197 3.197 0 0 0 0-.736z"/></svg>