<svg xmlns="http://www.w3.org/2000/svg" width="205" height="65"><defs><linearGradient id="a" x1="26.06" x2="35.03" y1="10.65" y2="47.42" gradientUnits="userSpaceOnUse"><stop offset="0" stop-color="#006884"/><stop offset="1" stop-color="#8ad1d0"/></linearGradient><linearGradient id="b" x1="15.11" x2="39.56" y1="15.87" y2="29.07" gradientUnits="userSpaceOnUse"><stop offset="0" stop-color="#24bbb6"/><stop offset="1" stop-color="#dbe692"/></linearGradient><linearGradient id="c" x1="43.23" x2="43.23" y1="37.92" y2="25.2" gradientUnits="userSpaceOnUse"><stop offset="0" stop-color="#fcc072"/><stop offset="1" stop-color="#f58a5b"/></linearGradient><linearGradient id="d" x1="19.85" x2="39.15" y1="53.36" y2="33.73" gradientUnits="userSpaceOnUse"><stop offset="0" stop-color="#712b8f"/><stop offset="1" stop-color="#ea1d27"/></linearGradient></defs><path d="M0 4.13a4 4 0 0 1 4-4h197a4 4 0 0 1 4 4v56a4 4 0 0 1-4 4H4a4 4 0 0 1-4-4z"/><path fill="url(#a)" d="M15.65 31.494V14.662a1.809 1.809 0 0 1 1.602-1.792 2.869 2.869 0 0 1 1.521.432l30.91 16.88c.548.22.93.725.993 1.312a1.6 1.6 0 0 1-.993 1.312L18.837 49.734a2.869 2.869 0 0 1-1.521.432 1.809 1.809 0 0 1-1.602-1.776z"/><path fill="url(#b)" d="M35.726 31.602L17.02 12.93h.288a2.869 2.869 0 0 1 1.522.432L41.636 25.73z"/><path fill="url(#c)" d="M41.464 37.33l-5.734-5.728 5.91-5.872 8.136 4.448c.548.22.93.725.993 1.312a1.6 1.6 0 0 1-.993 1.312z"/><path fill="url(#d)" d="M17.22 50.096L35.734 31.6l5.734 5.728-22.63 12.4a2.869 2.869 0 0 1-1.522.432z"/><path fill="#fff" d="M157.91 37.432a2.817 2.817 0 0 1-2.83 2.8h-3.391v-5.584h3.198a2.83 2.83 0 0 1 3.023 2.784zm-24.592 5.424l.094-.039c0 .013 0 .026.002.04zm.094-.039a3.711 3.711 0 0 1 3.471-3.849 2.702 2.702 0 0 1 2.447 1.392zm-11.7 1.511a3.711 3.711 0 0 1-3.567 2.88 4.08 4.08 0 0 1 0-8.096 3.663 3.663 0 0 1 3.406 2.672c.065.193.113.391.144.592a.32.32 0 0 1 0 .08 4.71 4.71 0 0 1 0 .672c.025.24.025.48 0 .72a3.65 3.65 0 0 1-.112.48zm-14.246-1.232a3.886 3.886 0 0 1-3.716 4.064 3.73 3.73 0 0 1-3.73-3.615 3.73 3.73 0 0 1 3.505-3.834 3.73 3.73 0 0 1 3.941 3.385zm-14.425 0a3.889 3.889 0 0 1-3.71 4.064 3.727 3.727 0 1 1 3.71-4.064zm82.087 1.424l-.003-.001c0-.016.002-.031.003-.047zm-.003-.001a3.375 3.375 0 0 1-3.355 3.153 1.95 1.95 0 0 1-2.19-1.76c0-1.072 1.087-2.032 3.006-2.032a4.793 4.793 0 0 1 2.539.639zm-45.902 4.907V29.624h-2.953v19.802zm35.91.31v-17.6h-2.697v17.6zm-13.476.01v-6.9h3.524a5.429 5.429 0 0 0 5.493-5.347 5.65 5.65 0 0 0-6.022-5.363h-5.702v17.61zm-19.398-1.858a6.725 6.725 0 0 0 9.506 0c.256-.272.576-.624.848-.976l-2.32-1.598a3.682 3.682 0 0 1-3.329 1.854 3.457 3.457 0 0 1-3.2-2.046l8.881-3.726a10.31 10.31 0 0 0-1.712-3.085 5.844 5.844 0 0 0-8.722 0 7.253 7.253 0 0 0 0 9.513zm-67.64-1.352a10.825 10.825 0 0 0 7.573 3.2 9.464 9.464 0 0 0 6.9-2.752 9.597 9.597 0 0 0 2.577-6.4c.027-.722-.01-1.445-.112-2.16h-9.493v2.848h6.788a6.206 6.206 0 0 1-1.505 3.584 7.366 7.366 0 0 1-10.534-.176 7.725 7.725 0 0 1 0-10.688 7.27 7.27 0 0 1 10.31-.128l2-2.08a10.41 10.41 0 0 0-14.42.429 10.396 10.396 0 0 0-.131 14.42zm32.468-3.435a6.663 6.663 0 0 0 6.658 6.725 6.66 6.66 0 0 0 6.658-6.64 6.66 6.66 0 0 0-6.615-6.682 6.66 6.66 0 0 0-6.7 6.597zm-14.415 0a6.663 6.663 0 0 0 6.658 6.725 6.66 6.66 0 0 0 6.658-6.64 6.66 6.66 0 0 0-6.615-6.682 6.66 6.66 0 0 0-6.7 6.597zm85.306 5.803a5.065 5.065 0 0 0 3.444 1.232 5.13 5.13 0 0 0 2.226-.448 4.612 4.612 0 0 0 1.458-1.152v1.2h2.674v-6.752a5.196 5.196 0 0 0-1.362-4.24 5.208 5.208 0 0 0-4.147-1.632 5.062 5.062 0 0 0-5.046 3.2l2.45.992a2.723 2.723 0 0 1 2.66-1.712 2.612 2.612 0 0 1 2.819 2.688 5.867 5.867 0 0 0-2.883-.656 6.01 6.01 0 0 0-4.485 1.68 3.79 3.79 0 0 0-.993 2.608 4.318 4.318 0 0 0 1.201 2.96zm15.629 6.048l7.377-17.456h-2.72l-3.33 7.888-3.408-7.888h-2.704l4.8 11.072-2.704 6.4zm-69.832-.713a6.18 6.18 0 0 0 4.177 1.6 6.084 6.084 0 0 0 4.783-1.981 6.074 6.074 0 0 0 1.523-4.944V36.776h-2.8v1.2a5.572 5.572 0 0 0-8.003.415 7.096 7.096 0 0 0 0 9.483c2.24 2.447 6.274 2.783 8.114.416v1.008c.04.95-.218 1.888-.736 2.686a3.49 3.49 0 0 1-5.345 0 5.805 5.805 0 0 1-.8-1.215l-2.577 1.103a9.324 9.324 0 0 0 1.776 2.431z"/><path fill="#fff" d="M182.979 51.746v-.032h-.016v.016l.016.016zM183.029 51.73h-.016.016-.016v-.016h.016-.016v.032h.016v-.016zM183.079 51.714h-.016v.032-.032h.016z"/><path fill="#fff" d="M183.089 51.73h-.016.016-.016v-.016h.016-.016v.032h.016v-.016zM183.169 51.714v.016l-.016-.016v.032h.016v-.032zM183.217 51.728h-.016v-.032h-.016v.048h.032v-.016zM183.377 51.744v-.048l-.016.032-.016-.032v.048-.032l.016.032.016-.032v.032zM183.487 51.696h-.032.016v.048-.048h.016zM183.527 51.728h-.016v-.032h.016-.032v.048h.032v-.016zM62.333 16.23a4.526 4.526 0 0 1 1.347-3.356 4.535 4.535 0 0 1 3.378-1.3 4.245 4.245 0 0 1 3.62 1.872l-1.282.736a2.948 2.948 0 0 0-2.338-1.248 3.076 3.076 0 0 0-3.107 3.2 3.086 3.086 0 0 0 3.107 3.2 3.205 3.205 0 0 0 2.13-.816v-1.376h-2.691v-1.248h4.26v3.44a4.887 4.887 0 0 1-3.7 1.6 4.55 4.55 0 0 1-3.39-1.322 4.542 4.542 0 0 1-1.334-3.382zM72.71 20.706V11.73h6.15v1.376h-4.58v2.32h4.484v1.392H74.28v2.512h4.58v1.376zM83.283 20.706v-7.6H80.56V11.73h7.03v1.376h-2.706v7.6zM93.02 20.706V11.73h1.602v8.976zM98.993 20.706v-7.6H96.27V11.73h7.015v1.376h-2.723v7.6zM115.971 16.23a2.99 2.99 0 0 1-1.394 2.846 3 3 0 0 1-3.173 0 2.99 2.99 0 0 1-1.394-2.847 2.99 2.99 0 0 1 1.394-2.847 3 3 0 0 1 3.173 0 2.99 2.99 0 0 1 1.394 2.847zm-7.593 0a4.607 4.607 0 0 0 2.22 4.215 4.616 4.616 0 0 0 4.769 0 4.607 4.607 0 0 0 2.22-4.216 4.607 4.607 0 0 0-2.22-4.216 4.616 4.616 0 0 0-4.769 0 4.607 4.607 0 0 0-2.22 4.216zM125.694 20.706l-4.692-6.4v6.4H119.4V11.73h1.602l4.596 6.224V11.73h1.602v8.976z"/></svg>